# xmcd
#
# Track frame offsets: 
#        150
#        28875
#        49350
#        73913
#        96262
#        117337
#        137475
#        161100
#        182850
#        205725
#
# Disc length: 3108 seconds
#
# Revision: 2
# Processed by: cddbd v1.5.2PL0 Copyright (c) Steve Scherf et al.
# Submitted via: ExactAudioCopy v0.99pb3
#
DISCID=980c220a
DTITLE=林憶蓮 - Love,Sandy
DYEAR=1995
DGENRE=Pop
TTITLE0=傷痕
TTITLE1=這些那些
TTITLE2=聽說愛情回來過
TTITLE3=知難不退
TTITLE4=無所謂
TTITLE5=為你我受冷風吹
TTITLE6=愛不了多久
TTITLE7=不愛的理由
TTITLE8=影子情人
TTITLE9=傷痕（演奏版）
EXTD=
EXTT0=
EXTT1=
EXTT2=
EXTT3=
EXTT4=
EXTT5=
EXTT6=
EXTT7=
EXTT8=
EXTT9=
PLAYORDER=
